<?xml version="1.0" encoding="UTF-8"?>
<svg id="Capa_1" xmlns="http://www.w3.org/2000/svg" viewBox="0 0 288 73.84">
  <defs>
    <style>
      .cls-1 {
        font-family: CenturyGothic, 'Century Gothic';
        font-size: 72px;
        letter-spacing: .05em;
      }

      .cls-1, .cls-2 {
        fill: #fff;
      }

      .cls-2 {
        stroke-width: 0px;
      }
    </style>
  </defs>
  <text class="cls-1" transform="translate(11.94 67.46)"><tspan x="0" y="0">Attim</tspan></text>
  <path class="cls-2" d="M252.23,16.2c-16.26,0-29.44,13.18-29.44,29.44,0,9.23,4.25,17.47,10.91,22.87-1.69-2.45-2.69-5.42-2.69-8.63v-5.87c0-.24.01-.48.03-.73l-.03.03v-.32s0,0,0,0l.45-15.47c.04-1.3,1.49-2.04,2.57-1.31l6.83,4.68c1.21-.36,2.5-.55,3.83-.55h15.49c1.23,0,2.43.17,3.56.48l6.74-4.62c1.06-.73,2.51,0,2.55,1.29l.45,14.74h0s0,.31,0,.31l-.06-.05c.03.38.06.75.06,1.13v6.56c0,2.98-.88,5.74-2.39,8.07,6.48-5.4,10.61-13.53,10.61-22.62,0-16.26-13.18-29.44-29.44-29.44Z"/>
</svg>