<?xml version="1.0" encoding="UTF-8"?>
<svg id="Capa_1" data-name="Capa 1" xmlns="http://www.w3.org/2000/svg" xmlns:xlink="http://www.w3.org/1999/xlink" viewBox="0 0 304.28 73.84">
  <defs>
    <style>
      .cls-1 {
        font-family: CenturyGothic, 'Century Gothic';
        font-size: 76.66px;
        letter-spacing: .04em;
      }

      .cls-1, .cls-2, .cls-3 {
        fill: #fff;
      }

      .cls-4 {
        clip-path: url(#clippath);
      }

      .cls-3, .cls-5 {
        stroke-width: 0px;
      }

      .cls-5 {
        fill: #354075;
      }
    </style>
    <clipPath id="clippath">
      <circle class="cls-3" cx="257.03" cy="43.44" r="29.44"/>
    </clipPath>
  </defs>
  <g>
    <circle class="cls-2" cx="257.03" cy="43.44" r="29.44"/>
    <g class="cls-4">
      <path class="cls-5" d="M278.17,50.29c.05.48.08.97.08,1.46v6.25c0,8.22-6.67,14.88-14.89,14.88h-12.36c-8.39,0-15.19-6.8-15.19-15.2v-5.56c0-.35.01-.7.04-1.05l-.04.04.45-15.47c.04-1.3,1.49-2.04,2.56-1.31l6.83,4.68c1.21-.36,2.5-.55,3.83-.55h15.49c1.23,0,2.43.17,3.56.48l6.74-4.62c1.06-.73,2.51,0,2.55,1.29l.45,14.74-.08-.07Z"/>
    </g>
  </g>
  <text class="cls-1" transform="translate(8.42 64.4)"><tspan x="0" y="0">Attim</tspan></text>
</svg>